ffmpeg started on 2026-01-05 at 18:23:04
Report written to "D:\Convert\FFMetrics\reports\ssim_report-6.txt"
Log level: 32
Command line:
ffmpeg -hide_banner -nostdin -r 24000/1001 -i "F:\\Convert\\files\\[DC] Make Heroine ga Oosugiru - 07_Telegram_HEVC(57).mkv" -r 24000/1001 -i "F:\\Convert\\files\\[DC] Make Heroine ga Oosugiru - 07_Telegram.mp4" -lavfi "[0:v]settb=AVTB,setpts=PTS-STARTPTS,format=pix_fmts=yuv420p10le,fps=24000/1001,scale=1920:1080:flags=bicubic[main];[1:v]settb=AVTB,setpts=PTS-STARTPTS,format=pix_fmts=yuv420p,fps=24000/1001,scale=1920:1080:flags=bicubic[ref];[main][ref]ssim=eof_action=endall:stats_file='D\\:/Convert/FFMetrics/logs/ssim_logfile-6.txt'" -f null -
Input #0, matroska,webm, from 'F:\Convert\files\[DC] Make Heroine ga Oosugiru - 07_Telegram_HEVC(57).mkv':
  Metadata:
    COMPATIBLE_BRANDS: isomiso2avc1mp41
    MAJOR_BRAND     : isom
    MINOR_VERSION   : 512
    ENCODER         : Lavf61.7.100
  Duration: 00:24:06.79, start: -0.021000, bitrate: 981 kb/s
  Stream #0:0: Video: hevc (Main 10), yuv420p10le(tv, bt709, progressive), 1920x1080 [SAR 1:1 DAR 16:9], 23.98 fps, 23.98 tbr, 1k tbn (default)
      Metadata:
        HANDLER_NAME    : VideoHandler
        VENDOR_ID       : [0][0][0][0]
        ENCODER         : Lavc61.19.100 libx265
        BPS             : 784110
        DURATION        : 00:24:06.569708333
        NUMBER_OF_FRAMES: 34683
        NUMBER_OF_BYTES : 141783703
        _STATISTICS_WRITING_APP: mkvpropedit v94.0 ('Initiate') 64-bit
        _STATISTICS_WRITING_DATE_UTC: 2026-01-05 12:30:26
        _STATISTICS_TAGS: BPS DURATION NUMBER_OF_FRAMES NUMBER_OF_BYTES
  Stream #0:1: Audio: aac (LC), 48000 Hz, stereo, fltp (default)
      Metadata:
        HANDLER_NAME    : SoundHandler
        VENDOR_ID       : [0][0][0][0]
        ENCODER         : Lavc61.19.100 aac
        BPS             : 193194
        DURATION        : 00:24:06.784000000
        NUMBER_OF_FRAMES: 67819
        NUMBER_OF_BYTES : 34938755
        _STATISTICS_WRITING_APP: mkvpropedit v94.0 ('Initiate') 64-bit
        _STATISTICS_WRITING_DATE_UTC: 2026-01-05 12:30:26
        _STATISTICS_TAGS: BPS DURATION NUMBER_OF_FRAMES NUMBER_OF_BYTES
Input #1, mov,mp4,m4a,3gp,3g2,mj2, from 'F:\Convert\files\[DC] Make Heroine ga Oosugiru - 07_Telegram.mp4':
  Metadata:
    major_brand     : isom
    minor_version   : 512
    compatible_brands: isomiso2avc1mp41
    encoder         : Lavf60.16.100
  Duration: 00:24:06.74, start: 0.000000, bitrate: 3764 kb/s
  Stream #1:0[0x1](und): Video: h264 (High) (avc1 / 0x31637661), yuv420p(tv, bt709, progressive), 1920x1080 [SAR 1:1 DAR 16:9], 3616 kb/s, 23.98 fps, 23.98 tbr, 24k tbn (default)
      Metadata:
        handler_name    : VideoHandler
        vendor_id       : [0][0][0][0]
        encoder         : Lavc60.31.102 h264_qsv
  Stream #1:1[0x2](und): Audio: aac (HE-AACv2) (mp4a / 0x6134706D), 48000 Hz, stereo, fltp, 144 kb/s (default)
      Metadata:
        handler_name    : SoundHandler
        vendor_id       : [0][0][0][0]
Stream mapping:
  Stream #0:0 (hevc) -> settb:default
  Stream #1:0 (h264) -> settb:default
  ssim:default -> Stream #0:0 (wrapped_avframe)
  Stream #0:1 -> #0:1 (aac (native) -> pcm_s16le (native))
Output #0, null, to 'pipe:':
  Metadata:
    COMPATIBLE_BRANDS: isomiso2avc1mp41
    MAJOR_BRAND     : isom
    MINOR_VERSION   : 512
    encoder         : Lavf61.7.100
  Stream #0:0: Video: wrapped_avframe, yuv420p10le(tv, bt709, progressive), 1920x1080 [SAR 1:1 DAR 16:9], q=2-31, 200 kb/s, 23.98 fps, 23.98 tbn
      Metadata:
        encoder         : Lavc61.19.100 wrapped_avframe
  Stream #0:1: Audio: pcm_s16le, 48000 Hz, stereo, s16, 1536 kb/s (default)
      Metadata:
        HANDLER_NAME    : SoundHandler
        VENDOR_ID       : [0][0][0][0]
        _STATISTICS_TAGS: BPS DURATION NUMBER_OF_FRAMES NUMBER_OF_BYTES
        BPS             : 193194
        DURATION        : 00:24:06.784000000
        NUMBER_OF_FRAMES: 67819
        NUMBER_OF_BYTES : 34938755
        _STATISTICS_WRITING_APP: mkvpropedit v94.0 ('Initiate') 64-bit
        _STATISTICS_WRITING_DATE_UTC: 2026-01-05 12:30:26
        encoder         : Lavc61.19.100 pcm_s16le
frame=  186 fps=0.0 q=-0.0 size=N/A time=00:00:07.75 bitrate=N/A speed=15.2x    frame=  444 fps=428 q=-0.0 size=N/A time=00:00:18.51 bitrate=N/A speed=17.9x    frame=  704 fps=456 q=-0.0 size=N/A time=00:00:29.36 bitrate=N/A speed=  19x    frame=  926 fps=448 q=-0.0 size=N/A time=00:00:38.62 bitrate=N/A speed=18.7x    frame= 1091 fps=424 q=-0.0 size=N/A time=00:00:45.50 bitrate=N/A speed=17.7x    frame= 1271 fps=411 q=-0.0 size=N/A time=00:00:53.01 bitrate=N/A speed=17.1x    frame= 1449 fps=402 q=-0.0 size=N/A time=00:01:00.43 bitrate=N/A speed=16.8x    frame= 1611 fps=390 q=-0.0 size=N/A time=00:01:07.19 bitrate=N/A speed=16.3x    frame= 1777 fps=383 q=-0.0 size=N/A time=00:01:14.11 bitrate=N/A speed=  16x    frame= 1966 fps=382 q=-0.0 size=N/A time=00:01:21.99 bitrate=N/A speed=15.9x    frame= 2099 fps=370 q=-0.0 size=N/A time=00:01:27.54 bitrate=N/A speed=15.4x    frame= 2267 fps=367 q=-0.0 size=N/A time=00:01:34.55 bitrate=N/A speed=15.3x    frame= 2426 fps=362 q=-0.0 size=N/A time=00:01:41.18 bitrate=N/A speed=15.1x    frame= 2572 fps=356 q=-0.0 size=N/A time=00:01:47.27 bitrate=N/A speed=14.8x    frame= 2762 fps=357 q=-0.0 size=N/A time=00:01:55.19 bitrate=N/A speed=14.9x    frame= 2964 fps=360 q=-0.0 size=N/A time=00:02:03.62 bitrate=N/A speed=  15x    frame= 3234 fps=369 q=-0.0 size=N/A time=00:02:14.88 bitrate=N/A speed=15.4x    frame= 3511 fps=378 q=-0.0 size=N/A time=00:02:26.43 bitrate=N/A speed=15.8x    frame= 3792 fps=387 q=-0.0 size=N/A time=00:02:38.15 bitrate=N/A speed=16.1x    frame= 4081 fps=395 q=-0.0 size=N/A time=00:02:50.21 bitrate=N/A speed=16.5x    frame= 4354 fps=402 q=-0.0 size=N/A time=00:03:01.59 bitrate=N/A speed=16.8x    frame= 4631 fps=408 q=-0.0 size=N/A time=00:03:13.15 bitrate=N/A speed=  17x    frame= 4900 fps=413 q=-0.0 size=N/A time=00:03:24.37 bitrate=N/A speed=17.2x    frame= 5176 fps=418 q=-0.0 size=N/A time=00:03:35.88 bitrate=N/A speed=17.4x    frame= 5447 fps=422 q=-0.0 size=N/A time=00:03:47.18 bitrate=N/A speed=17.6x    frame= 5714 fps=426 q=-0.0 size=N/A time=00:03:58.32 bitrate=N/A speed=17.8x    frame= 5981 fps=429 q=-0.0 size=N/A time=00:04:09.45 bitrate=N/A speed=17.9x    frame= 6247 fps=432 q=-0.0 size=N/A time=00:04:20.55 bitrate=N/A speed=  18x    frame= 6517 fps=436 q=-0.0 size=N/A time=00:04:31.81 bitrate=N/A speed=18.2x    frame= 6797 fps=439 q=-0.0 size=N/A time=00:04:43.49 bitrate=N/A speed=18.3x    frame= 7062 fps=441 q=-0.0 size=N/A time=00:04:54.54 bitrate=N/A speed=18.4x    frame= 7310 fps=443 q=-0.0 size=N/A time=00:05:04.88 bitrate=N/A speed=18.5x    frame= 7563 fps=444 q=-0.0 size=N/A time=00:05:15.44 bitrate=N/A speed=18.5x    frame= 7792 fps=444 q=-0.0 size=N/A time=00:05:24.99 bitrate=N/A speed=18.5x    frame= 8048 fps=446 q=-0.0 size=N/A time=00:05:35.66 bitrate=N/A speed=18.6x    frame= 8316 fps=448 q=-0.0 size=N/A time=00:05:46.84 bitrate=N/A speed=18.7x    frame= 8571 fps=449 q=-0.0 size=N/A time=00:05:57.48 bitrate=N/A speed=18.7x    frame= 8828 fps=450 q=-0.0 size=N/A time=00:06:08.20 bitrate=N/A speed=18.8x    frame= 9093 fps=452 q=-0.0 size=N/A time=00:06:19.25 bitrate=N/A speed=18.8x    frame= 9352 fps=453 q=-0.0 size=N/A time=00:06:30.05 bitrate=N/A speed=18.9x    frame= 9622 fps=455 q=-0.0 size=N/A time=00:06:41.31 bitrate=N/A speed=  19x    frame= 9879 fps=456 q=-0.0 size=N/A time=00:06:52.03 bitrate=N/A speed=  19x    frame=10133 fps=457 q=-0.0 size=N/A time=00:07:02.63 bitrate=N/A speed=19.1x    frame=10399 fps=458 q=-0.0 size=N/A time=00:07:13.72 bitrate=N/A speed=19.1x    frame=10649 fps=459 q=-0.0 size=N/A time=00:07:24.15 bitrate=N/A speed=19.1x    frame=10882 fps=459 q=-0.0 size=N/A time=00:07:33.87 bitrate=N/A speed=19.1x    frame=11126 fps=459 q=-0.0 size=N/A time=00:07:44.04 bitrate=N/A speed=19.1x    frame=11370 fps=459 q=-0.0 size=N/A time=00:07:54.22 bitrate=N/A speed=19.1x    frame=11638 fps=460 q=-0.0 size=N/A time=00:08:05.40 bitrate=N/A speed=19.2x    frame=11889 fps=461 q=-0.0 size=N/A time=00:08:15.87 bitrate=N/A speed=19.2x    frame=12153 fps=462 q=-0.0 size=N/A time=00:08:26.88 bitrate=N/A speed=19.3x    frame=12427 fps=463 q=-0.0 size=N/A time=00:08:38.30 bitrate=N/A speed=19.3x    frame=12684 fps=464 q=-0.0 size=N/A time=00:08:49.02 bitrate=N/A speed=19.3x    frame=12962 fps=465 q=-0.0 size=N/A time=00:09:00.62 bitrate=N/A speed=19.4x    frame=13207 fps=466 q=-0.0 size=N/A time=00:09:10.84 bitrate=N/A speed=19.4x    frame=13450 fps=466 q=-0.0 size=N/A time=00:09:20.97 bitrate=N/A speed=19.4x    frame=13710 fps=466 q=-0.0 size=N/A time=00:09:31.82 bitrate=N/A speed=19.4x    frame=13976 fps=467 q=-0.0 size=N/A time=00:09:42.91 bitrate=N/A speed=19.5x    frame=14191 fps=466 q=-0.0 size=N/A time=00:09:51.88 bitrate=N/A speed=19.4x    frame=14450 fps=467 q=-0.0 size=N/A time=00:10:02.68 bitrate=N/A speed=19.5x    frame=14680 fps=466 q=-0.0 size=N/A time=00:10:12.27 bitrate=N/A speed=19.5x    frame=14932 fps=467 q=-0.0 size=N/A time=00:10:22.78 bitrate=N/A speed=19.5x    frame=15129 fps=465 q=-0.0 size=N/A time=00:10:31.00 bitrate=N/A speed=19.4x    frame=15358 fps=465 q=-0.0 size=N/A time=00:10:40.55 bitrate=N/A speed=19.4x    frame=15622 fps=466 q=-0.0 size=N/A time=00:10:51.56 bitrate=N/A speed=19.4x    frame=15887 fps=466 q=-0.0 size=N/A time=00:11:02.62 bitrate=N/A speed=19.5x    frame=16152 fps=467 q=-0.0 size=N/A time=00:11:13.67 bitrate=N/A speed=19.5x    frame=16425 fps=468 q=-0.0 size=N/A time=00:11:25.05 bitrate=N/A speed=19.5x    frame=16678 fps=468 q=-0.0 size=N/A time=00:11:35.61 bitrate=N/A speed=19.5x    frame=16952 fps=469 q=-0.0 size=N/A time=00:11:47.03 bitrate=N/A speed=19.6x    frame=17222 fps=470 q=-0.0 size=N/A time=00:11:58.30 bitrate=N/A speed=19.6x    frame=17484 fps=471 q=-0.0 size=N/A time=00:12:09.22 bitrate=N/A speed=19.6x    frame=17725 fps=471 q=-0.0 size=N/A time=00:12:19.28 bitrate=N/A speed=19.6x    frame=17978 fps=471 q=-0.0 size=N/A time=00:12:29.83 bitrate=N/A speed=19.6x    frame=18221 fps=471 q=-0.0 size=N/A time=00:12:39.96 bitrate=N/A speed=19.6x    frame=18448 fps=470 q=-0.0 size=N/A time=00:12:49.43 bitrate=N/A speed=19.6x    frame=18719 fps=471 q=-0.0 size=N/A time=00:13:00.73 bitrate=N/A speed=19.7x    frame=18986 fps=472 q=-0.0 size=N/A time=00:13:11.87 bitrate=N/A speed=19.7x    frame=19268 fps=473 q=-0.0 size=N/A time=00:13:23.63 bitrate=N/A speed=19.7x    frame=19537 fps=473 q=-0.0 size=N/A time=00:13:34.85 bitrate=N/A speed=19.7x    frame=19809 fps=474 q=-0.0 size=N/A time=00:13:46.20 bitrate=N/A speed=19.8x    frame=20083 fps=475 q=-0.0 size=N/A time=00:13:57.62 bitrate=N/A speed=19.8x    frame=20356 fps=475 q=-0.0 size=N/A time=00:14:09.01 bitrate=N/A speed=19.8x    frame=20577 fps=475 q=-0.0 size=N/A time=00:14:18.19 bitrate=N/A speed=19.8x    frame=20835 fps=475 q=-0.0 size=N/A time=00:14:28.99 bitrate=N/A speed=19.8x    frame=21111 fps=476 q=-0.0 size=N/A time=00:14:40.50 bitrate=N/A speed=19.8x    frame=21378 fps=476 q=-0.0 size=N/A time=00:14:51.64 bitrate=N/A speed=19.9x    frame=21639 fps=477 q=-0.0 size=N/A time=00:15:02.52 bitrate=N/A speed=19.9x    frame=21918 fps=477 q=-0.0 size=N/A time=00:15:14.16 bitrate=N/A speed=19.9x    frame=22182 fps=478 q=-0.0 size=N/A time=00:15:25.17 bitrate=N/A speed=19.9x    frame=22457 fps=478 q=-0.0 size=N/A time=00:15:36.64 bitrate=N/A speed=19.9x    frame=22723 fps=479 q=-0.0 size=N/A time=00:15:47.73 bitrate=N/A speed=  20x    frame=22974 fps=479 q=-0.0 size=N/A time=00:15:58.20 bitrate=N/A speed=  20x    frame=23243 fps=479 q=-0.0 size=N/A time=00:16:09.42 bitrate=N/A speed=  20x    frame=23521 fps=480 q=-0.0 size=N/A time=00:16:21.02 bitrate=N/A speed=  20x    frame=23789 fps=480 q=-0.0 size=N/A time=00:16:32.19 bitrate=N/A speed=  20x    frame=24061 fps=481 q=-0.0 size=N/A time=00:16:43.54 bitrate=N/A speed=20.1x    frame=24311 fps=481 q=-0.0 size=N/A time=00:16:53.97 bitrate=N/A speed=20.1x    frame=24587 fps=481 q=-0.0 size=N/A time=00:17:05.48 bitrate=N/A speed=20.1x    frame=24860 fps=482 q=-0.0 size=N/A time=00:17:16.86 bitrate=N/A speed=20.1x    frame=25127 fps=482 q=-0.0 size=N/A time=00:17:28.00 bitrate=N/A speed=20.1x    frame=25407 fps=483 q=-0.0 size=N/A time=00:17:39.68 bitrate=N/A speed=20.1x    frame=25672 fps=483 q=-0.0 size=N/A time=00:17:50.73 bitrate=N/A speed=20.2x    frame=25938 fps=483 q=-0.0 size=N/A time=00:18:01.87 bitrate=N/A speed=20.2x    frame=26206 fps=484 q=-0.0 size=N/A time=00:18:13.00 bitrate=N/A speed=20.2x    frame=26481 fps=484 q=-0.0 size=N/A time=00:18:24.47 bitrate=N/A speed=20.2x    frame=26758 fps=485 q=-0.0 size=N/A time=00:18:36.03 bitrate=N/A speed=20.2x    frame=26990 fps=484 q=-0.0 size=N/A time=00:18:45.70 bitrate=N/A speed=20.2x    frame=27218 fps=484 q=-0.0 size=N/A time=00:18:55.21 bitrate=N/A speed=20.2x    frame=27461 fps=484 q=-0.0 size=N/A time=00:19:05.35 bitrate=N/A speed=20.2x    frame=27711 fps=484 q=-0.0 size=N/A time=00:19:15.77 bitrate=N/A speed=20.2x    frame=27956 fps=484 q=-0.0 size=N/A time=00:19:25.99 bitrate=N/A speed=20.2x    frame=28196 fps=484 q=-0.0 size=N/A time=00:19:36.00 bitrate=N/A speed=20.2x    frame=28445 fps=483 q=-0.0 size=N/A time=00:19:46.39 bitrate=N/A speed=20.2x    frame=28702 fps=484 q=-0.0 size=N/A time=00:19:57.11 bitrate=N/A speed=20.2x    frame=28892 fps=483 q=-0.0 size=N/A time=00:20:05.03 bitrate=N/A speed=20.1x    frame=29099 fps=482 q=-0.0 size=N/A time=00:20:13.67 bitrate=N/A speed=20.1x    frame=29326 fps=482 q=-0.0 size=N/A time=00:20:23.13 bitrate=N/A speed=20.1x    frame=29528 fps=481 q=-0.0 size=N/A time=00:20:31.56 bitrate=N/A speed=20.1x    frame=29734 fps=480 q=-0.0 size=N/A time=00:20:40.15 bitrate=N/A speed=  20x    frame=29938 fps=479 q=-0.0 size=N/A time=00:20:48.66 bitrate=N/A speed=  20x    frame=30131 fps=479 q=-0.0 size=N/A time=00:20:56.71 bitrate=N/A speed=  20x    frame=30370 fps=478 q=-0.0 size=N/A time=00:21:06.68 bitrate=N/A speed=  20x    frame=30627 fps=479 q=-0.0 size=N/A time=00:21:17.40 bitrate=N/A speed=  20x    frame=30899 fps=479 q=-0.0 size=N/A time=00:21:28.74 bitrate=N/A speed=  20x    frame=31155 fps=479 q=-0.0 size=N/A time=00:21:39.42 bitrate=N/A speed=  20x    frame=31406 fps=479 q=-0.0 size=N/A time=00:21:49.89 bitrate=N/A speed=  20x    frame=31658 fps=479 q=-0.0 size=N/A time=00:22:00.40 bitrate=N/A speed=  20x    frame=31881 fps=479 q=-0.0 size=N/A time=00:22:09.70 bitrate=N/A speed=  20x    frame=32108 fps=479 q=-0.0 size=N/A time=00:22:19.17 bitrate=N/A speed=  20x    frame=32365 fps=479 q=-0.0 size=N/A time=00:22:29.89 bitrate=N/A speed=  20x    frame=32609 fps=479 q=-0.0 size=N/A time=00:22:40.06 bitrate=N/A speed=  20x    frame=32768 fps=477 q=-0.0 size=N/A time=00:22:46.69 bitrate=N/A speed=19.9x    frame=32968 fps=477 q=-0.0 size=N/A time=00:22:55.04 bitrate=N/A speed=19.9x    frame=33186 fps=476 q=-0.0 size=N/A time=00:23:04.13 bitrate=N/A speed=19.9x    frame=33394 fps=476 q=-0.0 size=N/A time=00:23:12.80 bitrate=N/A speed=19.8x    frame=33562 fps=475 q=-0.0 size=N/A time=00:23:19.81 bitrate=N/A speed=19.8x    frame=33734 fps=474 q=-0.0 size=N/A time=00:23:26.98 bitrate=N/A speed=19.8x    frame=33872 fps=472 q=-0.0 size=N/A time=00:23:32.74 bitrate=N/A speed=19.7x    frame=34045 fps=471 q=-0.0 size=N/A time=00:23:39.96 bitrate=N/A speed=19.7x    frame=34235 fps=470 q=-0.0 size=N/A time=00:23:47.88 bitrate=N/A speed=19.6x    frame=34376 fps=469 q=-0.0 size=N/A time=00:23:53.76 bitrate=N/A speed=19.6x    frame=34561 fps=468 q=-0.0 size=N/A time=00:24:01.48 bitrate=N/A speed=19.5x    [Parsed_ssim_10 @ 0000020ad5f33980] SSIM Y:0.994162 (22.337226) U:0.993977 (22.201864) V:0.993585 (21.928266) All:0.994035 (22.243849)
[out#0/null @ 0000020ad5cb5ec0] video:14903KiB audio:271276KiB subtitle:0KiB other streams:0KiB global headers:0KiB muxing overhead: unknown
frame=34683 fps=468 q=-0.0 Lsize=N/A time=00:24:06.57 bitrate=N/A speed=19.5x    
